<svg width="113" height="113" viewBox="0 0 113 113" fill="none" xmlns="http://www.w3.org/2000/svg">
<path d="M42.0669 78.1654C46.55 83.701 52.3482 86.7082 58.8494 88.3641C62.3788 89.2643 71.5102 87.7257 73.8596 89.7907C78.809 94.2759 84.4877 97.1131 90.795 98.5445C91.369 98.6735 91.957 98.7559 92.538 98.8458C93.2744 98.9616 93.8771 98.7427 94.2552 98.0011C94.6304 97.2596 94.4939 96.5853 94.0254 95.9723C93.4802 95.2618 92.9255 94.5565 92.3304 93.9025C90.601 92.0107 89.2318 89.7856 88.2855 87.3542C87.607 85.6107 88.365 83.7208 89.8486 82.5809C90.1622 82.3398 90.472 82.094 90.7762 81.8398C93.6144 79.4894 95.9718 76.6776 97.4163 73.1039C99.7616 67.3103 99.2333 61.7182 96.1583 56.4011C93.7476 52.2319 90.4537 49.243 86.5947 47.0833M22.2238 53.5898C22.5279 53.844 22.8377 54.0898 23.1513 54.3309C24.6351 55.4708 25.3928 57.3607 24.7143 59.1042C23.7683 61.5356 22.3988 63.7607 20.6698 65.6525C20.0744 66.3065 19.5197 67.0118 18.9746 67.7223C18.5059 68.3353 18.3696 69.01 18.745 69.7511C19.1228 70.4927 19.7254 70.7116 20.4617 70.5958C21.0428 70.5059 21.631 70.4235 22.2048 70.2945C28.5125 68.8631 34.1909 66.0259 39.1403 61.5407C41.4896 59.4757 50.6212 61.0144 54.1505 60.1141C60.6518 58.4582 66.4501 55.451 70.9329 49.9154C76.4657 43.082 76.8174 33.8646 71.7818 26.6549C68.2699 21.6315 63.5309 18.4827 58.0938 16.5206C48.7995 13.1657 39.5012 13.346 30.31 16.9893C24.765 19.1855 20.031 22.636 16.8415 28.1511C13.7666 33.4684 13.2383 39.0605 15.5838 44.8537C17.0282 48.4276 19.3857 51.2394 22.2238 53.5898Z" stroke="white" stroke-width="3" stroke-linecap="round"/>
</svg>
