<svg width="113" height="113" viewBox="0 0 113 113" fill="none" xmlns="http://www.w3.org/2000/svg">
<path d="M84.7515 46.6134V71.341C84.7515 73.6335 83.6648 75.7904 81.8229 77.1549C68.1791 87.2613 49.5317 87.2613 35.8881 77.1549C34.046 75.7904 32.9596 73.6335 32.9596 71.341V48.2613M65.9182 37.6676L90.8356 45.2813C92.8154 45.8863 94.1681 47.7137 94.1681 49.7839V74.6618M94.1681 83.2936V89.4592M61.1674 54.868L90.8874 44.4658C95.0915 42.9944 95.0915 37.0492 90.8874 35.5778L61.1674 25.1758C58.1466 24.1185 54.8559 24.1185 51.8351 25.1758L22.1151 35.5778C17.9112 37.0492 17.9112 42.9944 22.1151 44.4658L51.8351 54.868C54.8559 55.925 58.1466 55.925 61.1674 54.868Z" stroke="white" stroke-width="3" stroke-linecap="round"/>
</svg>
