<svg width="113" height="113" viewBox="0 0 113 113" fill="none" xmlns="http://www.w3.org/2000/svg">
<path d="M11.7708 89.459C11.7708 76.6938 23.3647 68.2715 37.6666 68.2715C51.9686 68.2715 63.5624 76.6938 63.5624 89.459M101.229 77.6882C101.229 64.9229 89.6353 56.5007 75.3333 56.5007C70.1183 56.5007 65.2673 57.5629 61.2083 59.5413M49.4374 42.3757C49.4374 48.8764 44.1674 54.1465 37.6666 54.1465C31.1657 54.1465 25.8958 48.8764 25.8958 42.3757C25.8958 35.8748 31.1657 30.6048 37.6666 30.6048C44.1674 30.6048 49.4374 35.8748 49.4374 42.3757ZM87.1041 30.6048C87.1041 37.1057 81.8341 42.3757 75.3333 42.3757C68.8325 42.3757 63.5624 37.1057 63.5624 30.6048C63.5624 24.104 68.8325 18.834 75.3333 18.834C81.8341 18.834 87.1041 24.104 87.1041 30.6048Z" stroke="white" stroke-width="3" stroke-linecap="round"/>
</svg>
